<?xml version="1.0" encoding="utf-8"?>
<!-- Generator: Adobe Illustrator 23.0.3, SVG Export Plug-In . SVG Version: 6.00 Build 0)  -->
<svg version="1.1" id="Layer_1" xmlns="http://www.w3.org/2000/svg" xmlns:xlink="http://www.w3.org/1999/xlink" x="0px" y="0px"
	 viewBox="0 0 400 400" style="enable-background:new 0 0 400 400;" xml:space="preserve">
<style type="text/css">
	.st0{fill:#FFD600;}
	.st1{fill:#FFF100;}
</style>
<g>
	<polygon class="st0" points="200,25 227,81.5 275.9,42.3 275.8,105 336.8,90.9 309.5,147.3 370.6,161.1 321.5,200 370.6,238.9 
		309.5,252.7 336.8,309.1 275.8,295 275.9,357.7 227,318.5 200,375 173,318.5 124.1,357.7 124.2,295 63.2,309.1 90.5,252.7 
		29.4,238.9 78.5,200 29.4,161.1 90.5,147.3 63.2,90.9 124.2,105 124.1,42.3 173,81.5 	"/>
	<path class="st1" d="M91.1,200c0,60.1,48.7,108.9,108.9,108.9c60.1,0,108.9-48.7,108.9-108.9c0-60.1-48.7-108.9-108.9-108.9
		C139.9,91.1,91.1,139.9,91.1,200z"/>
</g>
</svg>
